<svg xmlns="http://www.w3.org/2000/svg" viewBox="0 0 120 120" role="img" aria-label="Nimbark Research Insights logo">
  <!-- outer ring -->
  <circle cx="60" cy="60" r="57" fill="#fdfaf3" stroke="#2d6a30" stroke-width="3"/>
  <!-- ground -->
  <path d="M22 88 Q60 78 98 88 L98 94 Q60 86 22 94 Z" fill="#3d8b40"/>
  <!-- trunk -->
  <path d="M56 88 L57 62 Q52 54 46 50 L50 48 Q56 53 58 58 Q58 48 54 40 L59 40 Q62 49 62 58 Q65 52 71 48 L74 51 Q66 56 63 63 L64 88 Z" fill="#7a4a21"/>
  <!-- foliage clusters -->
  <circle cx="60" cy="34" r="17" fill="#2d6a30"/>
  <circle cx="42" cy="42" r="13" fill="#3d8b40"/>
  <circle cx="78" cy="42" r="13" fill="#3d8b40"/>
  <circle cx="50" cy="28" r="11" fill="#4caf50"/>
  <circle cx="70" cy="28" r="11" fill="#4caf50"/>
  <circle cx="33" cy="50" r="9" fill="#2d6a30"/>
  <circle cx="87" cy="50" r="9" fill="#2d6a30"/>
  <!-- colourful knowledge dots -->
  <circle cx="47" cy="36" r="3" fill="#f5921e"/>
  <circle cx="66" cy="24" r="3" fill="#f7c948"/>
  <circle cx="76" cy="38" r="3" fill="#d64541"/>
  <circle cx="57" cy="44" r="3" fill="#f7c948"/>
  <circle cx="37" cy="46" r="2.5" fill="#f5921e"/>
  <circle cx="84" cy="47" r="2.5" fill="#f7c948"/>
</svg>
