<svg xmlns="http://www.w3.org/2000/svg" viewBox="0 0 200 170" fill="none"><circle cx="100" cy="85" r="80" fill="rgba(255,255,255,0.07)"/>
<circle cx="100" cy="85" r="58" fill="rgba(255,255,255,0.08)"/>
<rect x="64" y="42" width="72" height="94" rx="7" fill="#f5921e"/>
<rect x="64" y="42" width="14" height="94" rx="6" fill="#e8830c"/>
<rect x="88" y="58" width="38" height="9" rx="4" fill="#fdfaf3"/>
<rect x="88" y="72" width="28" height="7" rx="3.5" fill="#fdfaf3" opacity="0.75"/>
<rect x="86" y="102" width="42" height="22" rx="4" fill="#fdfaf3"/>
<g fill="#1e4620">
  <rect x="91" y="106" width="2.5" height="14"/><rect x="96" y="106" width="4" height="14"/>
  <rect x="103" y="106" width="2.5" height="14"/><rect x="108" y="106" width="5" height="14"/>
  <rect x="116" y="106" width="2.5" height="14"/><rect x="121" y="106" width="3.5" height="14"/>
</g>
<path d="M148 52 l4 9 9 4 -9 4 -4 9 -4 -9 -9 -4 9 -4 z" fill="#f7c948"/><circle cx="32" cy="42" r="4" fill="#f7c948"/>
<circle cx="172" cy="58" r="3" fill="#f5921e"/>
<circle cx="160" cy="130" r="4" fill="#f7c948" opacity="0.8"/>
<path d="M38 118 l3 7 7 3 -7 3 -3 7 -3 -7 -7 -3 7 -3 z" fill="#f7c948"/></svg>