<svg xmlns="http://www.w3.org/2000/svg" viewBox="0 0 200 170" fill="none"><circle cx="100" cy="85" r="80" fill="rgba(255,255,255,0.07)"/>
<circle cx="100" cy="85" r="58" fill="rgba(255,255,255,0.08)"/>
<rect x="52" y="98" width="18" height="34" rx="4" fill="#fdfaf3"/>
<rect x="78" y="78" width="18" height="54" rx="4" fill="#f7c948"/>
<rect x="104" y="58" width="18" height="74" rx="4" fill="#f5921e"/>
<polyline points="56,86 86,66 112,48 138,40" stroke="#fdfaf3" stroke-width="4" stroke-linecap="round" stroke-linejoin="round"/>
<circle cx="138" cy="40" r="5" fill="#f7c948"/>
<circle cx="142" cy="96" r="17" stroke="#fdfaf3" stroke-width="6"/>
<path d="M154 108 l14 14" stroke="#fdfaf3" stroke-width="7" stroke-linecap="round"/><circle cx="32" cy="42" r="4" fill="#f7c948"/>
<circle cx="172" cy="58" r="3" fill="#f5921e"/>
<circle cx="160" cy="130" r="4" fill="#f7c948" opacity="0.8"/>
<path d="M38 118 l3 7 7 3 -7 3 -3 7 -3 -7 -7 -3 7 -3 z" fill="#f7c948"/></svg>