<svg xmlns="http://www.w3.org/2000/svg" viewBox="0 0 200 170" fill="none"><circle cx="100" cy="85" r="80" fill="rgba(255,255,255,0.07)"/>
<circle cx="100" cy="85" r="58" fill="rgba(255,255,255,0.08)"/>
<rect x="56" y="38" width="78" height="98" rx="8" fill="#fdfaf3"/>
<circle cx="72" cy="60" r="7" fill="#3d8b40"/>
<polyline points="69,60 71,63 76,57" stroke="#fff" stroke-width="2.4" stroke-linecap="round"/>
<rect x="86" y="56" width="38" height="7" rx="3.5" fill="#cfd8cf"/>
<circle cx="72" cy="84" r="7" fill="#3d8b40"/>
<polyline points="69,84 71,87 76,81" stroke="#fff" stroke-width="2.4" stroke-linecap="round"/>
<rect x="86" y="80" width="30" height="7" rx="3.5" fill="#cfd8cf"/>
<circle cx="72" cy="108" r="7" fill="#f5921e"/>
<rect x="86" y="104" width="38" height="7" rx="3.5" fill="#cfd8cf"/>
<g transform="rotate(-35 144 100)">
  <rect x="137" y="62" width="14" height="58" rx="3" fill="#f5921e"/>
  <polygon points="137,120 151,120 144,135" fill="#f7c948"/>
</g><circle cx="32" cy="42" r="4" fill="#f7c948"/>
<circle cx="172" cy="58" r="3" fill="#f5921e"/>
<circle cx="160" cy="130" r="4" fill="#f7c948" opacity="0.8"/>
<path d="M38 118 l3 7 7 3 -7 3 -3 7 -3 -7 -7 -3 7 -3 z" fill="#f7c948"/></svg>