<svg xmlns="http://www.w3.org/2000/svg" viewBox="0 0 200 170" fill="none"><circle cx="100" cy="85" r="80" fill="rgba(255,255,255,0.07)"/>
<circle cx="100" cy="85" r="58" fill="rgba(255,255,255,0.08)"/>
<rect x="46" y="52" width="108" height="76" rx="8" fill="#fdfaf3"/>
<rect x="58" y="66" width="52" height="8" rx="4" fill="#3d8b40"/>
<rect x="58" y="82" width="64" height="6" rx="3" fill="#cfd8cf"/>
<rect x="58" y="94" width="48" height="6" rx="3" fill="#cfd8cf"/>
<circle cx="132" cy="104" r="15" fill="#f5921e"/>
<circle cx="132" cy="104" r="9" fill="#f7c948"/>
<path d="M126 116 l-6 16 8 -5 6 6 2 -14" fill="#e8830c"/>
<circle cx="132" cy="40" r="11" fill="#f7c948"/>
<path d="M128 50 h8 M129 55 h6" stroke="#fdfaf3" stroke-width="3" stroke-linecap="round"/><circle cx="32" cy="42" r="4" fill="#f7c948"/>
<circle cx="172" cy="58" r="3" fill="#f5921e"/>
<circle cx="160" cy="130" r="4" fill="#f7c948" opacity="0.8"/>
<path d="M38 118 l3 7 7 3 -7 3 -3 7 -3 -7 -7 -3 7 -3 z" fill="#f7c948"/></svg>