<svg xmlns="http://www.w3.org/2000/svg" viewBox="0 0 200 170" fill="none"><circle cx="100" cy="85" r="80" fill="rgba(255,255,255,0.07)"/>
<circle cx="100" cy="85" r="58" fill="rgba(255,255,255,0.08)"/>
<rect x="52" y="112" width="96" height="17" rx="4" fill="#fdfaf3"/>
<rect x="58" y="94" width="84" height="17" rx="4" fill="#f7c948"/>
<rect x="64" y="76" width="72" height="17" rx="4" fill="#f5921e"/>
<polygon points="100,36 148,56 100,76 52,56" fill="#fdfaf3"/>
<rect x="93" y="52" width="14" height="7" rx="3" fill="#1e4620"/>
<path d="M141 59 v22" stroke="#f7c948" stroke-width="4" stroke-linecap="round"/>
<circle cx="141" cy="86" r="6" fill="#f7c948"/><circle cx="32" cy="42" r="4" fill="#f7c948"/>
<circle cx="172" cy="58" r="3" fill="#f5921e"/>
<circle cx="160" cy="130" r="4" fill="#f7c948" opacity="0.8"/>
<path d="M38 118 l3 7 7 3 -7 3 -3 7 -3 -7 -7 -3 7 -3 z" fill="#f7c948"/></svg>