<svg xmlns="http://www.w3.org/2000/svg" viewBox="0 0 200 170" fill="none"><circle cx="100" cy="85" r="80" fill="rgba(255,255,255,0.07)"/>
<circle cx="100" cy="85" r="58" fill="rgba(255,255,255,0.08)"/>
<path d="M100 34 L140 48 V88 C140 114 120 130 100 138 C80 130 60 114 60 88 V48 Z" fill="#fdfaf3"/>
<path d="M100 44 L131 55 V88 C131 108 116 121 100 128 C84 121 69 108 69 88 V55 Z" fill="#f7c948"/>
<polyline points="84,88 96,100 118,74" stroke="#1e4620" stroke-width="9" stroke-linecap="round" stroke-linejoin="round"/><circle cx="32" cy="42" r="4" fill="#f7c948"/>
<circle cx="172" cy="58" r="3" fill="#f5921e"/>
<circle cx="160" cy="130" r="4" fill="#f7c948" opacity="0.8"/>
<path d="M38 118 l3 7 7 3 -7 3 -3 7 -3 -7 -7 -3 7 -3 z" fill="#f7c948"/></svg>