<svg xmlns="http://www.w3.org/2000/svg" viewBox="0 0 200 170" fill="none"><circle cx="100" cy="85" r="80" fill="rgba(255,255,255,0.07)"/>
<circle cx="100" cy="85" r="58" fill="rgba(255,255,255,0.08)"/>
<rect x="60" y="42" width="80" height="98" rx="9" fill="#fdfaf3"/>
<rect x="84" y="34" width="32" height="16" rx="6" fill="#f7c948"/>
<rect x="72" y="62" width="56" height="7" rx="3.5" fill="#cfd8cf"/>
<rect x="72" y="76" width="42" height="7" rx="3.5" fill="#cfd8cf"/>
<rect x="72" y="96" width="12" height="30" rx="3" fill="#3d8b40"/>
<rect x="90" y="106" width="12" height="20" rx="3" fill="#f7c948"/>
<rect x="108" y="90" width="12" height="36" rx="3" fill="#f5921e"/><circle cx="32" cy="42" r="4" fill="#f7c948"/>
<circle cx="172" cy="58" r="3" fill="#f5921e"/>
<circle cx="160" cy="130" r="4" fill="#f7c948" opacity="0.8"/>
<path d="M38 118 l3 7 7 3 -7 3 -3 7 -3 -7 -7 -3 7 -3 z" fill="#f7c948"/></svg>