<svg xmlns="http://www.w3.org/2000/svg" viewBox="0 0 200 170" fill="none"><circle cx="100" cy="85" r="80" fill="rgba(255,255,255,0.07)"/>
<circle cx="100" cy="85" r="58" fill="rgba(255,255,255,0.08)"/>
<rect x="46" y="96" width="52" height="38" rx="6" fill="#f5921e"/>
<rect x="46" y="96" width="9" height="38" rx="4" fill="#e8830c"/>
<polygon points="76,42 116,58 76,74 36,58" fill="#fdfaf3"/>
<rect x="70" y="56" width="12" height="6" rx="3" fill="#1e4620"/>
<path d="M110 60 v16" stroke="#f7c948" stroke-width="3.5" stroke-linecap="round"/>
<circle cx="110" cy="80" r="5" fill="#f7c948"/>
<rect x="112" y="102" width="14" height="32" rx="4" fill="#fdfaf3"/>
<rect x="132" y="86" width="14" height="48" rx="4" fill="#f7c948"/>
<rect x="152" y="70" width="14" height="64" rx="4" fill="#fdfaf3"/>
<polyline points="118,94 139,78 158,60" stroke="#f5921e" stroke-width="4" stroke-linecap="round"/>
<circle cx="158" cy="60" r="5" fill="#f5921e"/><circle cx="32" cy="42" r="4" fill="#f7c948"/>
<circle cx="172" cy="58" r="3" fill="#f5921e"/>
<circle cx="160" cy="130" r="4" fill="#f7c948" opacity="0.8"/>
<path d="M38 118 l3 7 7 3 -7 3 -3 7 -3 -7 -7 -3 7 -3 z" fill="#f7c948"/></svg>