<svg xmlns="http://www.w3.org/2000/svg" viewBox="0 0 200 170" fill="none"><circle cx="100" cy="85" r="80" fill="rgba(255,255,255,0.07)"/>
<circle cx="100" cy="85" r="58" fill="rgba(255,255,255,0.08)"/>
<rect x="58" y="38" width="76" height="98" rx="8" fill="#fdfaf3"/>
<rect x="68" y="52" width="42" height="8" rx="4" fill="#f5921e"/>
<rect x="68" y="68" width="56" height="6" rx="3" fill="#cfd8cf"/>
<rect x="68" y="80" width="56" height="6" rx="3" fill="#cfd8cf"/>
<rect x="68" y="92" width="40" height="6" rx="3" fill="#cfd8cf"/>
<g transform="rotate(40 138 96)">
  <rect x="130" y="52" width="16" height="66" rx="3" fill="#f7c948"/>
  <polygon points="130,118 146,118 138,136" fill="#f5921e"/>
  <rect x="130" y="44" width="16" height="10" rx="3" fill="#3d8b40"/>
</g><circle cx="32" cy="42" r="4" fill="#f7c948"/>
<circle cx="172" cy="58" r="3" fill="#f5921e"/>
<circle cx="160" cy="130" r="4" fill="#f7c948" opacity="0.8"/>
<path d="M38 118 l3 7 7 3 -7 3 -3 7 -3 -7 -7 -3 7 -3 z" fill="#f7c948"/></svg>